HIERARCHY
ROOT SpineBase
{
  OFFSET 0.000000 0.000000 0.000000
  CHANNELS 6 Xposition Yposition Zposition Zrotation Xrotation Yrotation
  JOINT SpineMid
  {
    OFFSET -0.000000 30.752908 0.000000
    CHANNELS 3 Zrotation Xrotation Yrotation
    JOINT SpineShoulder
    {
      OFFSET -0.141071 22.888933 -0.766067
      CHANNELS 3 Zrotation Xrotation Yrotation
      JOINT Neck
      {
        OFFSET -0.111018 7.593296 -0.575904
        CHANNELS 3 Zrotation Xrotation Yrotation
        JOINT Head
        {
          OFFSET -1.378549 14.017039 -2.890667
          CHANNELS 3 Zrotation Xrotation Yrotation
          End Site
          {
            OFFSET 0 0 0
          }
        }
      }
      JOINT ShoulderLeft
      {
        OFFSET -12.274434 -3.168057 -3.933201
        CHANNELS 3 Zrotation Xrotation Yrotation
        JOINT ElbowLeft
        {
          OFFSET -4.327401 -26.577575 4.388556
          CHANNELS 3 Zrotation Xrotation Yrotation
          JOINT WristLeft
          {
            OFFSET -0.414775 -27.285405 -11.435079
            CHANNELS 3 Zrotation Xrotation Yrotation
            JOINT HandLeft
            {
              OFFSET 1.730143 -3.345327 0.542849
              CHANNELS 3 Zrotation Xrotation Yrotation
              JOINT HandTipLeft
              {
                OFFSET 0.617513 -5.028304 0.540453
                CHANNELS 3 Zrotation Xrotation Yrotation
                End Site
                {
                  OFFSET 0 0 0
                }
              }
              JOINT ThumbLeft
              {
                OFFSET -3.954598 1.119699 -2.954925
                CHANNELS 3 Zrotation Xrotation Yrotation
                End Site
                {
                  OFFSET 0 0 0
                }
              }
            }
          }
        }
      }
      JOINT ShoulderRight
      {
        OFFSET 16.393753 -2.801387 -3.655279
        CHANNELS 3 Zrotation Xrotation Yrotation
        JOINT ElbowRight
        {
          OFFSET 4.668634 -23.845350 0.709242
          CHANNELS 3 Zrotation Xrotation Yrotation
          JOINT WristRight
          {
            OFFSET -3.390548 -20.802531 -8.245324
            CHANNELS 3 Zrotation Xrotation Yrotation
            JOINT HandRight
            {
              OFFSET -2.959593 -4.451455 -0.054441
              CHANNELS 3 Zrotation Xrotation Yrotation
              JOINT HandTipRight
              {
                OFFSET -0.653883 -7.574551 -1.377472
                CHANNELS 3 Zrotation Xrotation Yrotation
                End Site
                {
                  OFFSET 0 0 0
                }
              }
              JOINT ThumbRight
              {
                OFFSET 2.360634 0.337551 -2.533431
                CHANNELS 3 Zrotation Xrotation Yrotation
                End Site
                {
                  OFFSET 0 0 0
                }
              }
            }
          }
        }
      }
    }
  }
  JOINT HipLeft
  {
    OFFSET -8.664543 1.453423 -3.211412
    CHANNELS 3 Zrotation Xrotation Yrotation
    JOINT KneeLeft
    {
      OFFSET -1.917771 -26.084272 1.318853
      CHANNELS 3 Zrotation Xrotation Yrotation
      JOINT AnkleLeft
      {
        OFFSET -1.012443 -37.958842 9.929400
        CHANNELS 3 Zrotation Xrotation Yrotation
        JOINT FootLeft
        {
          OFFSET -2.758490 -7.898222 -4.501399
          CHANNELS 3 Zrotation Xrotation Yrotation
          End Site
          {
            OFFSET 0 0 0
          }
        }
      }
    }
  }
  JOINT HipRight
  {
    OFFSET 7.323409 0.718447 -3.490748
    CHANNELS 3 Zrotation Xrotation Yrotation
    JOINT KneeRight
    {
      OFFSET 0.946472 -30.084133 4.135633
      CHANNELS 3 Zrotation Xrotation Yrotation
      JOINT AnkleRight
      {
        OFFSET -0.688628 -33.729634 7.612922
        CHANNELS 3 Zrotation Xrotation Yrotation
        JOINT FootRight
        {
          OFFSET 1.971535 -5.764688 -6.579887
          CHANNELS 3 Zrotation Xrotation Yrotation
          End Site
          {
            OFFSET 0 0 0
          }
        }
      }
    }
  }
}
MOTION
Frames: 8
Frame Time: 0.033333
63.489916 69.263774 315.095909 1.635489 -5.575860 -13.859026 0.838578 -0.975764 13.966458 0.166944 -0.328547 0.041389 16.933679 1.253966 2.042386 0.000000 0.000000 0.000000 0.190846 6.127123 0.348488 -0.161682 1.272861 -1.600743 -40.710271 17.100283 12.157551 -59.248492 43.357021 30.551209 0.000000 0.000000 0.000000 0.000000 0.000000 0.000000 7.116862 2.565614 -1.304524 -9.557438 0.359082 1.616561 -2.264551 3.074725 0.079397 3.550797 -9.822174 0.159372 0.000000 0.000000 0.000000 0.000000 0.000000 0.000000 7.198703 -2.750554 15.006856 -14.351203 13.314840 -0.887839 29.795572 37.073566 -29.419632 0.000000 0.000000 0.000000 -5.083326 7.977616 14.231995 3.761614 -4.659199 0.854290 -2.140391 23.807175 5.736158 0.000000 0.000000 0.000000
63.406710 69.187787 315.036554 2.227370 -6.753329 -14.544606 0.862481 -0.969255 14.716118 0.146374 -0.291145 0.055892 18.174617 0.451216 2.063600 0.000000 0.000000 0.000000 -0.215440 5.833779 0.609195 0.098248 4.047814 -2.112683 -40.570381 15.806654 11.231399 -56.013668 38.606549 20.804432 0.000000 0.000000 0.000000 0.000000 0.000000 0.000000 8.792066 1.569402 -1.810595 -10.384749 2.768118 1.465627 -10.495527 -1.986382 3.761284 10.173389 -6.525318 -3.285795 0.000000 0.000000 0.000000 0.000000 0.000000 0.000000 8.605574 -3.187821 15.957845 -19.208932 17.375250 -0.485405 32.445112 32.314251 -26.681310 0.000000 0.000000 0.000000 -6.240994 8.169803 15.021247 4.492689 -3.360477 0.976314 -1.388036 22.704761 4.313245 0.000000 0.000000 0.000000
63.333821 69.101780 315.004848 3.118088 -8.363969 -13.076901 0.675118 -0.915936 13.366542 0.061081 -0.190032 0.072764 18.605390 0.256118 1.873741 0.000000 0.000000 0.000000 -1.222768 5.245698 0.961214 1.122646 7.990094 -2.809154 -36.783997 10.242653 6.261261 -25.316633 19.110036 1.235935 0.000000 0.000000 0.000000 0.000000 0.000000 0.000000 10.741603 0.083756 -2.429602 -11.934783 5.440510 1.715615 -16.744225 -5.894227 6.180911 14.726282 -5.180618 -6.013344 0.000000 0.000000 0.000000 0.000000 0.000000 0.000000 7.427437 -1.633905 14.366753 -20.938873 17.442926 -0.515504 36.049349 24.745539 -24.702099 0.000000 0.000000 0.000000 -7.778136 8.027206 13.691870 6.067985 -0.961506 1.194454 -2.522740 21.367035 4.542295 0.000000 0.000000 0.000000
63.292041 69.131787 314.992442 4.231044 -10.219256 -9.803830 0.417994 -0.811404 10.273919 0.020201 -0.134857 0.096925 18.228086 0.638123 1.504893 0.000000 0.000000 0.000000 -2.114495 6.835372 0.996140 1.337013 8.832839 -2.937562 -30.228237 -2.706252 -4.191360 -7.935339 24.037922 11.573896 0.000000 0.000000 0.000000 0.000000 0.000000 0.000000 11.089802 0.143031 -2.927245 -11.316224 5.522972 1.434233 -21.923812 -8.456246 8.771867 18.781329 -5.011903 -8.860335 0.000000 0.000000 0.000000 0.000000 0.000000 0.000000 4.783135 1.985981 10.747943 -20.310305 14.036021 -1.155769 39.925482 17.034578 -23.825690 0.000000 0.000000 0.000000 -9.124118 7.871853 10.656511 7.589813 2.224806 1.286005 -3.093643 19.735560 4.036349 0.000000 0.000000 0.000000
63.226606 69.194942 314.947314 5.420764 -12.120404 -4.442401 0.079558 -0.582115 5.144447 -0.055852 -0.036608 0.121872 17.362571 1.480839 1.076667 0.000000 0.000000 0.000000 -3.100434 9.117063 0.912683 1.407630 8.230096 -2.746357 -25.097368 -23.238286 -18.302999 -14.208449 36.577697 26.861757 0.000000 0.000000 0.000000 0.000000 0.000000 0.000000 9.773479 1.766501 -3.176805 -8.651135 3.254127 0.734396 -19.145647 -14.519182 14.491489 15.980404 -1.466850 -14.821362 0.000000 0.000000 0.000000 0.000000 0.000000 0.000000 1.797949 7.834318 5.002679 -17.974251 7.637030 -2.091173 46.250893 5.843157 -23.529783 0.000000 0.000000 0.000000 -9.999362 7.796590 5.635086 8.781005 5.940285 1.189465 -3.518847 18.086462 3.490350 0.000000 0.000000 0.000000
63.155972 69.093104 314.900645 6.570415 -13.892885 3.146964 -0.138295 -0.304180 -2.189322 -0.100182 0.051349 0.148649 16.031891 2.816308 0.626413 0.000000 0.000000 0.000000 -3.999114 10.716767 0.956837 1.294643 7.618488 -2.647386 -21.115302 -35.209757 -24.706483 -25.455661 41.539917 37.497852 0.000000 0.000000 0.000000 0.000000 0.000000 0.000000 8.990151 0.446445 -3.603586 -5.959870 5.664876 -0.325319 -19.669946 -26.081395 22.606142 16.411299 5.829383 -22.982275 0.000000 0.000000 0.000000 0.000000 0.000000 0.000000 -0.374157 15.545420 -2.888057 -13.621517 -0.849041 -2.584945 56.006789 -22.547020 -10.879613 0.000000 0.000000 0.000000 -10.458851 7.770965 -1.534945 9.721839 10.188839 0.915714 -3.037155 16.251079 2.132011 0.000000 0.000000 0.000000
63.230054 68.889335 314.905843 7.774430 -15.470673 9.791570 -0.300756 -0.039433 -8.540510 -0.088628 0.091971 0.176251 14.458232 4.869370 0.170845 0.000000 0.000000 0.000000 -4.631164 11.040764 1.215680 0.968707 8.510822 -2.884462 -16.640984 -47.267209 -29.720314 -41.194695 46.700702 51.552599 0.000000 0.000000 0.000000 0.000000 0.000000 0.000000 5.565777 2.576393 -3.456343 -1.951719 3.779033 -1.133298 6.281233 -18.790278 26.484707 -12.765762 10.442620 -14.511512 0.000000 0.000000 0.000000 0.000000 0.000000 0.000000 -1.939634 24.347137 -9.651406 -8.102891 -9.989941 -2.168082 67.516841 -41.474577 6.312978 0.000000 0.000000 0.000000 -11.608202 8.589856 -7.561716 11.286462 13.020952 0.722896 -1.948407 14.807595 -0.039172 0.000000 0.000000 0.000000
63.283079 68.947123 314.757892 8.518881 -16.579270 16.690565 -0.196481 -0.030216 -15.246242 -0.025139 0.090729 0.196489 13.707784 7.393976 -0.240926 0.000000 0.000000 0.000000 -6.302140 13.034366 1.229121 1.685938 7.631177 -2.604594 -14.370504 -50.912378 -30.376574 -45.802152 50.508821 56.162457 0.000000 0.000000 0.000000 0.000000 0.000000 0.000000 0.507738 7.204055 -2.539388 -0.266920 -2.755261 0.454530 17.750503 -7.537513 16.825427 -29.895583 5.008065 -5.498040 0.000000 0.000000 0.000000 0.000000 0.000000 0.000000 -1.828403 33.486265 -16.919214 -1.155036 -19.170278 -0.440093 72.680129 -46.171298 10.187743 0.000000 0.000000 0.000000 -11.870303 9.849939 -13.954860 12.280801 14.807871 0.545851 0.316562 13.474262 -3.081503 0.000000 0.000000 0.000000
